<svg xmlns="http://www.w3.org/2000/svg" viewBox="0 0 64 48"><rect width="64" height="48" fill="#012169"/><g transform="scale(.45)"><rect width="64" height="48" fill="#012169"/><path d="M0 0h8l56 42v6h-8L0 6zM64 0v6L8 48H0v-6L56 0z" fill="#fff"/><path d="M0 0h4l60 45v3h-4L0 3zM64 0v3L4 48H0v-3L60 0z" fill="#c8102e"/><path d="M27 0h10v48H27zM0 19h64v10H0z" fill="#fff"/><path d="M29 0h6v48h-6zM0 21h64v6H0z" fill="#c8102e"/></g><g fill="#fff"><polygon points="46,5 48.715567865591225,12.262341485987744 56.46162167924669,12.600813061875579 50.39388110528361,17.427658514012258 52.4656377752172,24.899186938124423 46,20.62 39.5343622247828,24.899186938124423 41.60611889471639,17.427658514012258 35.53837832075331,12.60081306187558 43.284432134408775,12.262341485987744" fill="currentColor" /><polygon points="54,5 56.715567865591225,12.262341485987744 64.46162167924669,12.600813061875579 58.39388110528361,17.427658514012258 60.4656377752172,24.899186938124423 54,20.62 47.5343622247828,24.899186938124423 49.60611889471639,17.427658514012258 43.53837832075331,12.60081306187558 51.284432134408775,12.262341485987744" fill="currentColor" /><polygon points="62,5 64.71556786559123,12.262341485987744 72.46162167924669,12.600813061875579 66.39388110528361,17.427658514012258 68.4656377752172,24.899186938124423 62,20.62 55.5343622247828,24.899186938124423 57.60611889471639,17.427658514012258 51.53837832075331,12.60081306187558 59.284432134408775,12.262341485987744" fill="currentColor" /><polygon points="70,5 72.71556786559123,12.262341485987744 80.46162167924669,12.600813061875579 74.39388110528361,17.427658514012258 76.4656377752172,24.899186938124423 70,20.62 63.5343622247828,24.899186938124423 65.60611889471639,17.427658514012258 59.53837832075331,12.60081306187558 67.28443213440877,12.262341485987744" fill="currentColor" /><polygon points="78,5 80.71556786559123,12.262341485987744 88.46162167924669,12.600813061875579 82.39388110528361,17.427658514012258 84.4656377752172,24.899186938124423 78,20.62 71.5343622247828,24.899186938124423 73.60611889471639,17.427658514012258 67.53837832075331,12.60081306187558 75.28443213440877,12.262341485987744" fill="currentColor" /></g></svg>