<svg xmlns="http://www.w3.org/2000/svg" viewBox="0 0 64 48"><rect width="64" height="48" fill="#002f6c"/><path d="M26 0h38v48H45Z" fill="#f7d116"/><g fill="#fff"><polygon points="4,0 4.987479223851355,2.6408514494500883 7.804226065180615,2.76393202250021 5.597774947375858,4.519148550549912 6.3511410091698925,7.23606797749979 4,5.68 1.648858990830108,7.23606797749979 2.402225052624142,4.519148550549912 0.19577393481938543,2.763932022500211 3.012520776148645,2.6408514494500883" fill="currentColor" /><polygon points="9,0 9.987479223851356,2.6408514494500883 12.804226065180615,2.76393202250021 10.597774947375857,4.519148550549912 11.351141009169893,7.23606797749979 9,5.68 6.648858990830108,7.23606797749979 7.402225052624142,4.519148550549912 5.195773934819385,2.763932022500211 8.012520776148644,2.6408514494500883" fill="currentColor" /><polygon points="14,0 14.987479223851356,2.6408514494500883 17.804226065180615,2.76393202250021 15.597774947375857,4.519148550549912 16.351141009169893,7.23606797749979 14,5.68 11.648858990830108,7.23606797749979 12.402225052624143,4.519148550549912 10.195773934819385,2.763932022500211 13.012520776148644,2.6408514494500883" fill="currentColor" /><polygon points="19,0 19.987479223851356,2.6408514494500883 22.804226065180615,2.76393202250021 20.597774947375857,4.519148550549912 21.351141009169893,7.23606797749979 19,5.68 16.648858990830107,7.23606797749979 17.402225052624143,4.519148550549912 15.195773934819385,2.763932022500211 18.012520776148644,2.6408514494500883" fill="currentColor" /><polygon points="24,0 24.987479223851356,2.6408514494500883 27.804226065180615,2.76393202250021 25.597774947375857,4.519148550549912 26.351141009169893,7.23606797749979 24,5.68 21.648858990830107,7.23606797749979 22.402225052624143,4.519148550549912 20.195773934819385,2.763932022500211 23.012520776148644,2.6408514494500883" fill="currentColor" /><polygon points="4,5 4.987479223851355,7.640851449450088 7.804226065180615,7.76393202250021 5.597774947375858,9.519148550549911 6.3511410091698925,12.23606797749979 4,10.68 1.648858990830108,12.23606797749979 2.402225052624142,9.519148550549911 0.19577393481938543,7.763932022500211 3.012520776148645,7.640851449450088" fill="currentColor" /><polygon points="9,5 9.987479223851356,7.640851449450088 12.804226065180615,7.76393202250021 10.597774947375857,9.519148550549911 11.351141009169893,12.23606797749979 9,10.68 6.648858990830108,12.23606797749979 7.402225052624142,9.519148550549911 5.195773934819385,7.763932022500211 8.012520776148644,7.640851449450088" fill="currentColor" /><polygon points="14,5 14.987479223851356,7.640851449450088 17.804226065180615,7.76393202250021 15.597774947375857,9.519148550549911 16.351141009169893,12.23606797749979 14,10.68 11.648858990830108,12.23606797749979 12.402225052624143,9.519148550549911 10.195773934819385,7.763932022500211 13.012520776148644,7.640851449450088" fill="currentColor" /><polygon points="19,5 19.987479223851356,7.640851449450088 22.804226065180615,7.76393202250021 20.597774947375857,9.519148550549911 21.351141009169893,12.23606797749979 19,10.68 16.648858990830107,12.23606797749979 17.402225052624143,9.519148550549911 15.195773934819385,7.763932022500211 18.012520776148644,7.640851449450088" fill="currentColor" /></g></svg>