<svg xmlns="http://www.w3.org/2000/svg" viewBox="0 0 64 48"><rect width="64" height="48" fill="#003893"/><path d="M0 28h64v5H0z" fill="#fff"/><path d="M0 33h64v4H0z" fill="#cf2027"/><g fill="#f7d116"><polygon points="22,21 22.740609417888518,22.980638587087565 24.85316954888546,23.072949016875157 23.198331210531894,24.389361412912432 23.76335575687742,26.427050983124843 22,25.26 20.23664424312258,26.427050983124843 20.801668789468106,24.389361412912432 19.14683045111454,23.072949016875157 21.259390582111482,22.980638587087565" fill="currentColor" /><polygon points="29,21 29.740609417888518,22.980638587087565 31.85316954888546,23.072949016875157 30.198331210531894,24.389361412912432 30.76335575687742,26.427050983124843 29,25.26 27.23664424312258,26.427050983124843 27.801668789468106,24.389361412912432 26.14683045111454,23.072949016875157 28.259390582111482,22.980638587087565" fill="currentColor" /><polygon points="36,21 36.740609417888514,22.980638587087565 38.85316954888546,23.072949016875157 37.19833121053189,24.389361412912432 37.76335575687742,26.427050983124843 36,25.26 34.23664424312258,26.427050983124843 34.80166878946811,24.389361412912432 33.14683045111454,23.072949016875157 35.259390582111486,22.980638587087565" fill="currentColor" /><polygon points="43,21 43.740609417888514,22.980638587087565 45.85316954888546,23.072949016875157 44.19833121053189,24.389361412912432 44.76335575687742,26.427050983124843 43,25.26 41.23664424312258,26.427050983124843 41.80166878946811,24.389361412912432 40.14683045111454,23.072949016875157 42.259390582111486,22.980638587087565" fill="currentColor" /><polygon points="50,21 50.740609417888514,22.980638587087565 52.85316954888546,23.072949016875157 51.19833121053189,24.389361412912432 51.76335575687742,26.427050983124843 50,25.26 48.23664424312258,26.427050983124843 48.80166878946811,24.389361412912432 47.14683045111454,23.072949016875157 49.259390582111486,22.980638587087565" fill="currentColor" /><polygon points="22,28 22.740609417888518,29.980638587087565 24.85316954888546,30.072949016875157 23.198331210531894,31.389361412912432 23.76335575687742,33.42705098312484 22,32.26 20.23664424312258,33.42705098312484 20.801668789468106,31.389361412912432 19.14683045111454,30.072949016875157 21.259390582111482,29.980638587087565" fill="currentColor" /><polygon points="29,28 29.740609417888518,29.980638587087565 31.85316954888546,30.072949016875157 30.198331210531894,31.389361412912432 30.76335575687742,33.42705098312484 29,32.26 27.23664424312258,33.42705098312484 27.801668789468106,31.389361412912432 26.14683045111454,30.072949016875157 28.259390582111482,29.980638587087565" fill="currentColor" /><polygon points="36,28 36.740609417888514,29.980638587087565 38.85316954888546,30.072949016875157 37.19833121053189,31.389361412912432 37.76335575687742,33.42705098312484 36,32.26 34.23664424312258,33.42705098312484 34.80166878946811,31.389361412912432 33.14683045111454,30.072949016875157 35.259390582111486,29.980638587087565" fill="currentColor" /><polygon points="43,28 43.740609417888514,29.980638587087565 45.85316954888546,30.072949016875157 44.19833121053189,31.389361412912432 44.76335575687742,33.42705098312484 43,32.26 41.23664424312258,33.42705098312484 41.80166878946811,31.389361412912432 40.14683045111454,30.072949016875157 42.259390582111486,29.980638587087565" fill="currentColor" /><polygon points="50,28 50.740609417888514,29.980638587087565 52.85316954888546,30.072949016875157 51.19833121053189,31.389361412912432 51.76335575687742,33.42705098312484 50,32.26 48.23664424312258,33.42705098312484 48.80166878946811,31.389361412912432 47.14683045111454,30.072949016875157 49.259390582111486,29.980638587087565" fill="currentColor" /></g></svg>