<svg xmlns="http://www.w3.org/2000/svg" viewBox="0 0 64 48"><rect width="64" height="48" fill="#012169"/><g transform="scale(.45)"><rect width="64" height="48" fill="#012169"/><path d="M0 0h8l56 42v6h-8L0 6zM64 0v6L8 48H0v-6L56 0z" fill="#fff"/><path d="M0 0h4l60 45v3h-4L0 3zM64 0v3L4 48H0v-3L60 0z" fill="#c8102e"/><path d="M27 0h10v48H27zM0 19h64v10H0z" fill="#fff"/><path d="M29 0h6v48h-6zM0 21h64v6H0z" fill="#c8102e"/></g><g><polygon points="45,11 46.2343490298142,14.30106431181261 49.75528258147577,14.454915028125264 46.997218684219824,16.64893568818739 47.93892626146236,20.045084971874736 45,18.1 42.06107373853764,20.045084971874736 43.002781315780176,16.64893568818739 40.24471741852423,14.454915028125264 43.7656509701858,14.30106431181261" fill="#cc142b" stroke="#fff" stroke-width="1.5"/><polygon points="54,19 54.98747922385135,21.64085144945009 57.804226065180615,21.76393202250021 55.59777494737586,23.51914855054991 56.35114100916989,26.23606797749979 54,24.68 51.64885899083011,26.23606797749979 52.40222505262414,23.51914855054991 50.195773934819385,21.76393202250021 53.01252077614865,21.64085144945009" fill="#cc142b" stroke="#fff" stroke-width="1.5"/><polygon points="43,28 43.98747922385135,30.64085144945009 46.804226065180615,30.76393202250021 44.59777494737586,32.519148550549914 45.35114100916989,35.236067977499786 43,33.68 40.64885899083011,35.236067977499786 41.40222505262414,32.519148550549914 39.195773934819385,30.76393202250021 42.01252077614865,30.64085144945009" fill="#cc142b" stroke="#fff" stroke-width="1.5"/><polygon points="53,32 54.2343490298142,35.30106431181261 57.75528258147577,35.454915028125264 54.997218684219824,37.64893568818739 55.93892626146236,41.045084971874736 53,39.1 50.06107373853764,41.045084971874736 51.002781315780176,37.64893568818739 48.24471741852423,35.454915028125264 51.7656509701858,35.30106431181261" fill="#cc142b" stroke="#fff" stroke-width="1.5"/></g></svg>