<svg xmlns="http://www.w3.org/2000/svg" viewBox="0 0 64 48"><path d="M0 0h64v3.6923076923076925H0z" fill="#b22234"/><path d="M0 3.6923076923076925h64v3.6923076923076925H0z" fill="#fff"/><path d="M0 7.384615384615385h64v3.6923076923076925H0z" fill="#b22234"/><path d="M0 11.076923076923077h64v3.6923076923076925H0z" fill="#fff"/><path d="M0 14.76923076923077h64v3.6923076923076925H0z" fill="#b22234"/><path d="M0 18.46153846153846h64v3.6923076923076925H0z" fill="#fff"/><path d="M0 22.153846153846153h64v3.6923076923076925H0z" fill="#b22234"/><path d="M0 25.846153846153847h64v3.6923076923076925H0z" fill="#fff"/><path d="M0 29.53846153846154h64v3.6923076923076925H0z" fill="#b22234"/><path d="M0 33.23076923076923h64v3.6923076923076925H0z" fill="#fff"/><path d="M0 36.92307692307692h64v3.6923076923076925H0z" fill="#b22234"/><path d="M0 40.61538461538461h64v3.6923076923076925H0z" fill="#fff"/><path d="M0 44.30769230769231h64v3.6923076923076925H0z" fill="#b22234"/><rect width="28" height="26" fill="#3c3b6e"/><g fill="#fff"><polygon points="4,2 4.493739611925678,3.320425724725044 5.902113032590307,3.381966011250105 4.798887473687929,4.2595742752749555 5.175570504584947,5.618033988749895 4,4.84 2.824429495415054,5.618033988749895 3.201112526312071,4.2595742752749555 2.0978869674096927,3.3819660112501055 3.5062603880743226,3.320425724725044" fill="currentColor" /><polygon points="9,2 9.493739611925678,3.320425724725044 10.902113032590307,3.381966011250105 9.798887473687929,4.2595742752749555 10.175570504584947,5.618033988749895 9,4.84 7.824429495415054,5.618033988749895 8.201112526312071,4.2595742752749555 7.097886967409693,3.3819660112501055 8.506260388074322,3.320425724725044" fill="currentColor" /><polygon points="14,2 14.493739611925678,3.320425724725044 15.902113032590307,3.381966011250105 14.798887473687929,4.2595742752749555 15.175570504584947,5.618033988749895 14,4.84 12.824429495415053,5.618033988749895 13.201112526312071,4.2595742752749555 12.097886967409693,3.3819660112501055 13.506260388074322,3.320425724725044" fill="currentColor" /><polygon points="19,2 19.493739611925676,3.320425724725044 20.902113032590307,3.381966011250105 19.79888747368793,4.2595742752749555 20.175570504584947,5.618033988749895 19,4.84 17.824429495415053,5.618033988749895 18.20111252631207,4.2595742752749555 17.097886967409693,3.3819660112501055 18.506260388074324,3.320425724725044" fill="currentColor" /><polygon points="24,2 24.493739611925676,3.320425724725044 25.902113032590307,3.381966011250105 24.79888747368793,4.2595742752749555 25.175570504584947,5.618033988749895 24,4.84 22.824429495415053,5.618033988749895 23.20111252631207,4.2595742752749555 22.097886967409693,3.3819660112501055 23.506260388074324,3.320425724725044" fill="currentColor" /><polygon points="4,7 4.493739611925678,8.320425724725045 5.902113032590307,8.381966011250105 4.798887473687929,9.259574275274955 5.175570504584947,10.618033988749895 4,9.84 2.824429495415054,10.618033988749895 3.201112526312071,9.259574275274955 2.0978869674096927,8.381966011250105 3.5062603880743226,8.320425724725045" fill="currentColor" /><polygon points="9,7 9.493739611925678,8.320425724725045 10.902113032590307,8.381966011250105 9.798887473687929,9.259574275274955 10.175570504584947,10.618033988749895 9,9.84 7.824429495415054,10.618033988749895 8.201112526312071,9.259574275274955 7.097886967409693,8.381966011250105 8.506260388074322,8.320425724725045" fill="currentColor" /><polygon points="14,7 14.493739611925678,8.320425724725045 15.902113032590307,8.381966011250105 14.798887473687929,9.259574275274955 15.175570504584947,10.618033988749895 14,9.84 12.824429495415053,10.618033988749895 13.201112526312071,9.259574275274955 12.097886967409693,8.381966011250105 13.506260388074322,8.320425724725045" fill="currentColor" /><polygon points="19,7 19.493739611925676,8.320425724725045 20.902113032590307,8.381966011250105 19.79888747368793,9.259574275274955 20.175570504584947,10.618033988749895 19,9.84 17.824429495415053,10.618033988749895 18.20111252631207,9.259574275274955 17.097886967409693,8.381966011250105 18.506260388074324,8.320425724725045" fill="currentColor" /><polygon points="24,7 24.493739611925676,8.320425724725045 25.902113032590307,8.381966011250105 24.79888747368793,9.259574275274955 25.175570504584947,10.618033988749895 24,9.84 22.824429495415053,10.618033988749895 23.20111252631207,9.259574275274955 22.097886967409693,8.381966011250105 23.506260388074324,8.320425724725045" fill="currentColor" /><polygon points="4,12 4.493739611925678,13.320425724725045 5.902113032590307,13.381966011250105 4.798887473687929,14.259574275274955 5.175570504584947,15.618033988749895 4,14.84 2.824429495415054,15.618033988749895 3.201112526312071,14.259574275274955 2.0978869674096927,13.381966011250105 3.5062603880743226,13.320425724725045" fill="currentColor" /><polygon points="9,12 9.493739611925678,13.320425724725045 10.902113032590307,13.381966011250105 9.798887473687929,14.259574275274955 10.175570504584947,15.618033988749895 9,14.84 7.824429495415054,15.618033988749895 8.201112526312071,14.259574275274955 7.097886967409693,13.381966011250105 8.506260388074322,13.320425724725045" fill="currentColor" /></g></svg>