<svg xmlns="http://www.w3.org/2000/svg" viewBox="0 0 512 512"><rect width="512" height="512" rx="112" fill="#10224a"/><circle cx="256" cy="256" r="174" fill="#f8fafc"/><path d="M116 249c64-16 118 2 162 53 38 44 78 61 118 54" fill="none" stroke="#0b1220" stroke-width="12" opacity=".2"/><path d="M178 116c-5 75 23 123 84 145 56 20 87 58 95 112" fill="none" stroke="#0b1220" stroke-width="12" opacity=".2"/><path d="M122 221c76-62 150-75 221-39" fill="none" stroke="#ef4444" stroke-width="44" stroke-linecap="round"/><path d="M166 373c49-85 113-127 194-126" fill="none" stroke="#16a34a" stroke-width="44" stroke-linecap="round"/><path d="M309 113c33 58 51 121 54 190" fill="none" stroke="#2563eb" stroke-width="44" stroke-linecap="round"/><path d="M154 169c70 8 135 37 195 87" fill="none" stroke="#facc15" stroke-width="12" stroke-linecap="round"/><circle cx="256" cy="256" r="174" fill="none" stroke="#e5e7eb" stroke-width="10"/></svg>