<svg xmlns="http://www.w3.org/2000/svg" viewBox="0 0 128 128">
  <defs>
    <linearGradient id="bg" x1="20" x2="108" y1="16" y2="112" gradientUnits="userSpaceOnUse">
      <stop offset="0" stop-color="#334155"/>
      <stop offset=".55" stop-color="#111827"/>
      <stop offset="1" stop-color="#050816"/>
    </linearGradient>
    <linearGradient id="facade" x1="20" x2="110" y1="35" y2="91" gradientUnits="userSpaceOnUse">
      <stop offset="0" stop-color="#f8fafc"/>
      <stop offset=".45" stop-color="#cbd5e1"/>
      <stop offset="1" stop-color="#64748b"/>
    </linearGradient>
    <linearGradient id="pitch" x1="34" x2="96" y1="72" y2="105" gradientUnits="userSpaceOnUse">
      <stop offset="0" stop-color="#4ade80"/>
      <stop offset="1" stop-color="#15803d"/>
    </linearGradient>
  </defs>
  <rect width="128" height="128" rx="32" fill="url(#bg)"/>
  <path d="M17 66c6-25 25-40 47-40s41 15 47 40v30H17Z" fill="#e2e8f0"/>
  <path d="M23 66c6-21 22-33 41-33s35 12 41 33v22H23Z" fill="url(#facade)"/>
  <path d="M30 65c6-16 19-24 34-24s28 8 34 24v12H30Z" fill="#0f172a"/>
  <path d="M36 64c5-11 16-17 28-17s23 6 28 17v7H36Z" fill="#dbeafe"/>
  <path d="M40 65c5-8 13-12 24-12s19 4 24 12" fill="none" stroke="#94a3b8" stroke-width="4" stroke-linecap="round"/>
  <path d="M23 75h82v16H23Z" fill="#cbd5e1"/>
  <path d="M29 78h70v4H29zm0 7h70v4H29" stroke="#64748b" stroke-width="2" opacity=".9"/>
  <ellipse cx="64" cy="93" rx="42" ry="22" fill="#e5e7eb"/>
  <ellipse cx="64" cy="94" rx="31" ry="14" fill="url(#pitch)"/>
  <path d="M43 94h42M64 81v25" stroke="#bbf7d0" stroke-width="2.6" stroke-linecap="round" opacity=".85"/>
  <path d="M53 88c6-4 16-4 22 0" fill="none" stroke="#bbf7d0" stroke-width="2.4" stroke-linecap="round" opacity=".85"/>
  <g fill="#f8fafc">
    <rect x="20" y="61" width="8" height="33" rx="3"/>
    <rect x="100" y="61" width="8" height="33" rx="3"/>
  </g>
  <g fill="#facc15">
    <circle cx="32" cy="39" r="2.6"/>
    <circle cx="45" cy="32" r="2.6"/>
    <circle cx="64" cy="29" r="3"/>
    <circle cx="83" cy="32" r="2.6"/>
    <circle cx="96" cy="39" r="2.6"/>
  </g>
  <path d="M22 67c9 7 23 11 42 11s33-4 42-11" fill="none" stroke="#ffffff" stroke-width="4" stroke-linecap="round" opacity=".75"/>
  <path d="M34 50c8-8 18-12 30-12s22 4 30 12" fill="none" stroke="#ffffff" stroke-width="3" stroke-linecap="round" opacity=".65"/>
</svg>
